<?xml version="1.0" encoding="UTF-8" standalone="no"?>
<!DOCTYPE svg PUBLIC "-//W3C//DTD SVG 1.1//EN"
 "http://www.w3.org/Graphics/SVG/1.1/DTD/svg11.dtd">
<!-- Generated by graphviz version 2.26.3 (20100126.1600)
 -->
<!-- Title: G Pages: 1 -->
<svg width="178pt" height="152pt"
 viewBox="0.00 0.00 178.00 152.00" xmlns="http://www.w3.org/2000/svg" xmlns:xlink="http://www.w3.org/1999/xlink">
<g id="graph1" class="graph" transform="scale(1 1) rotate(0) translate(4 148)">
<title>G</title>
<polygon fill="white" stroke="white" points="-4,5 -4,-148 175,-148 175,5 -4,5"/>
<g id="graph2" class="cluster"><title>cluster_Global</title>
<polyline fill="none" stroke="gray" points="20,-8 150,-8 "/>
<path fill="none" stroke="gray" d="M150,-8C156,-8 162,-14 162,-20"/>
<polyline fill="none" stroke="gray" points="162,-20 162,-124 "/>
<path fill="none" stroke="gray" d="M162,-124C162,-130 156,-136 150,-136"/>
<polyline fill="none" stroke="gray" points="150,-136 20,-136 "/>
<path fill="none" stroke="gray" d="M20,-136C14,-136 8,-130 8,-124"/>
<polyline fill="none" stroke="gray" points="8,-124 8,-20 "/>
<path fill="none" stroke="gray" d="M8,-20C8,-14 14,-8 20,-8"/>
<text text-anchor="middle" x="85" y="-122.1" font-family="Times Roman,serif" font-size="11.00" fill="gray">\</text>
</g>
<!-- \\imdbCheckInTracker -->
<g id="node2" class="node"><title>\\imdbCheckInTracker</title>
<polygon fill="none" stroke="black" points="154,-106 16,-106 16,-70 154,-70 154,-106"/>
<text text-anchor="middle" x="85" y="-85.1" font-family="Courier,monospace" font-size="11.00">imdbCheckInTracker</text>
</g>
<!-- \\parseCSV -->
<g id="node3" class="node"><title>\\parseCSV</title>
<polygon fill="none" stroke="black" points="120,-52 50,-52 50,-16 120,-16 120,-52"/>
<text text-anchor="middle" x="85" y="-31.1" font-family="Courier,monospace" font-size="11.00">parseCSV</text>
</g>
</g>
</svg>
